<?xml version="1.0" encoding="UTF-8"?>
<!DOCTYPE svg PUBLIC "-//W3C//DTD SVG 1.1//EN" "http://www.w3.org/Graphics/SVG/1.1/DTD/svg11.dtd">
<!-- Creator: CorelDRAW 2017 -->
<svg xmlns="http://www.w3.org/2000/svg" xml:space="preserve" width="25.4mm" height="25.4mm" version="1.1" style="shape-rendering:geometricPrecision; text-rendering:geometricPrecision; image-rendering:optimizeQuality; fill-rule:evenodd; clip-rule:evenodd" viewBox="0 0 2540 2540" xmlns:xlink="http://www.w3.org/1999/xlink">
 <defs>
  <style type="text/css">
   <![CDATA[
    .fil0 {fill:#293352}
    .fil1 {fill:white;fill-rule:nonzero}
   ]]>
  </style>
 </defs>
 <g id="Capa_x0020_1">
  <metadata id="CorelCorpID_0Corel-Layer"/>
  <rect class="fil0" width="2540" height="2540"/>
  <g id="_2451622758160">
   <g>
    <path class="fil1" d="M1761 591l-492 -219 -492 221 178 324 -177 324 493 219 491 -221 -178 -324 177 -325zm-218 250l0 0 -195 -355 313 139 -118 216zm-273 501l0 0 -234 -425 232 -426 233 425 -232 426zm-394 -715l0 0 313 -140 -194 356 -119 -216zm119 365l0 0 196 355 -314 -139 118 -216zm666 215l0 0 -312 140 194 -356 118 216z"/>
   </g>
   <g>
    <path class="fil1" d="M814 1753c-5,-19 -12,-34 -22,-46 -10,-12 -23,-21 -40,-27 -16,-6 -36,-9 -60,-9 -23,0 -45,4 -67,12 -22,8 -41,20 -57,35l47 50c9,-8 19,-15 31,-20 12,-6 25,-8 38,-8 14,0 26,3 36,10 10,7 15,17 15,31l0 4c-20,0 -41,1 -62,3 -21,2 -41,7 -58,14 -17,7 -32,16 -43,29 -11,12 -17,29 -16,49 0,16 3,30 10,42 6,11 15,20 24,27 10,7 21,12 33,15 12,3 24,4 35,4 17,0 32,-3 47,-10 14,-6 25,-15 32,-27l2 0 0 30 84 0 0 -141c0,-25 -2,-47 -7,-66zm-92 137l0 0c-10,10 -24,15 -43,16 -4,0 -9,0 -14,-1 -5,-1 -9,-3 -13,-5 -4,-2 -7,-5 -9,-9 -2,-4 -4,-8 -4,-13 0,-8 3,-15 8,-20 5,-5 12,-9 20,-12 8,-3 17,-4 27,-5 10,-1 20,-1 31,-1l12 0 0 10c0,18 -5,32 -15,42z"/>
    <path class="fil1" d="M1244 1680l-66 0 0 -74 -90 0 0 74 -44 0 0 0 -61 0 0 -74 -90 0 0 74 -44 0 0 68 45 0 0 118c0,15 2,29 5,41 3,12 9,23 17,31 8,9 18,16 31,20 13,5 28,7 47,7 10,0 19,-1 29,-3 10,-2 18,-4 24,-6l-1 -67c-3,2 -8,3 -13,3 -5,1 -10,1 -14,1 -13,0 -22,-3 -27,-10 -5,-7 -8,-16 -8,-30l0 -107 66 0 0 0 40 0 0 118c0,15 2,29 5,41 3,12 9,23 17,31 8,9 18,16 31,20 13,5 28,7 47,7 10,0 19,-1 29,-3 10,-2 18,-4 24,-6l-1 -67c-3,2 -8,3 -13,3 -5,1 -10,1 -14,1 -13,0 -22,-3 -27,-10 -5,-7 -8,-16 -8,-30l0 -107 66 0 0 -68z"/>
    <path class="fil1" d="M1372 1555c-5,-4 -10,-8 -17,-11 -7,-3 -13,-4 -20,-4 -7,0 -14,1 -21,4 -6,3 -12,6 -17,11 -5,5 -9,10 -11,16 -3,6 -4,13 -4,19 0,14 5,26 15,36 10,10 23,15 38,15 7,0 14,-1 20,-4 7,-3 12,-6 17,-11 5,-4 8,-10 11,-16 3,-6 4,-13 4,-20 0,-7 -1,-14 -4,-20 -3,-6 -7,-12 -11,-16z"/>
    <polygon class="fil1" points="1289,1680 1289,1959 1381,1959 1381,1680 "/>
    <path class="fil1" d="M1627 1885c-9,4 -18,5 -28,5 -10,0 -19,-2 -27,-6 -8,-4 -15,-9 -21,-15 -6,-7 -10,-14 -13,-23 -3,-9 -5,-18 -5,-27 0,-10 2,-19 5,-28 3,-9 8,-16 13,-23 6,-7 12,-12 20,-16 8,-4 17,-6 26,-6 9,0 19,2 28,6 9,4 16,10 21,16l53 -62c-6,-6 -12,-11 -20,-15 -8,-5 -16,-9 -25,-12 -9,-3 -19,-6 -29,-8 -10,-2 -20,-3 -30,-3 -22,0 -42,4 -61,10 -19,7 -36,17 -50,30 -14,13 -25,29 -33,47 -8,18 -12,39 -12,62 0,23 4,44 12,62 8,18 19,34 33,47 14,13 31,23 50,29 19,7 40,10 62,10 21,0 40,-3 58,-10 18,-6 33,-15 45,-26l-51 -62c-6,7 -13,12 -22,15z"/>
    <path class="fil1" d="M1985 1817c0,-25 -2,-47 -7,-66 -5,-19 -12,-34 -22,-46 -10,-12 -23,-21 -40,-27 -16,-6 -36,-9 -60,-9 -23,0 -45,4 -67,12 -22,8 -41,20 -57,35l47 50c9,-8 19,-15 31,-20 12,-6 25,-8 38,-8 14,0 26,3 36,10 10,7 15,17 15,31l0 4c-20,0 -41,1 -62,3 -21,2 -41,7 -58,14 -17,7 -32,16 -43,29 -11,12 -17,29 -16,49 0,16 3,30 10,42 6,11 15,20 24,27 10,7 21,12 33,15 12,3 24,4 35,4 17,0 32,-3 47,-10 14,-6 25,-15 32,-27l2 0 0 30 84 0 0 -141zm-99 71l0 0c-10,10 -24,15 -43,16 -4,0 -9,0 -14,-1 -5,-1 -9,-3 -13,-5 -4,-2 -7,-5 -9,-9 -2,-4 -4,-8 -4,-13 0,-8 3,-15 8,-20 5,-5 12,-9 20,-12 8,-3 17,-4 27,-5 10,-1 20,-1 31,-1l12 0 0 10c0,18 -5,32 -15,42z"/>
   </g>
   <g>
    <polygon class="fil1" points="1081,2154 1135,2154 1135,2165 1069,2165 1069,2049 1081,2049 "/>
    <path class="fil1" d="M1163 2165l-13 0 50 -116 11 0 50 116 -13 0 -13 -30 -60 0 -13 30zm17 -41l0 0 51 0 -25 -61 -25 61z"/>
    <path class="fil1" d="M1289 2049l34 0c4,0 9,0 13,1 4,1 8,3 12,5 4,2 6,5 9,9 2,4 3,9 3,14 0,6 -2,11 -6,16 -4,5 -9,7 -15,9l0 0c7,1 14,4 19,9 5,5 7,12 7,20 0,5 -1,9 -3,13 -2,4 -5,7 -9,10 -4,3 -8,5 -14,6 -5,2 -11,2 -18,2l-34 0 0 -116zm12 51l0 0 24 0c3,0 6,0 9,-1 3,-1 6,-2 8,-3 2,-2 4,-4 6,-6 1,-3 2,-6 2,-10 0,-4 -1,-7 -2,-9 -1,-3 -3,-5 -6,-6 -3,-2 -5,-3 -9,-4 -3,-1 -7,-1 -11,-1l-20 0 0 40zm0 55l0 0 22 0c4,0 8,0 12,-1 4,-1 7,-2 10,-4 3,-2 5,-4 7,-7 2,-3 3,-6 3,-10 0,-8 -3,-13 -8,-17 -5,-4 -12,-6 -22,-6l-24 0 0 45z"/>
    <path class="fil1" d="M1460 2068c-3,-3 -6,-6 -10,-8 -4,-2 -9,-3 -14,-3 -3,0 -6,0 -9,1 -3,1 -6,2 -8,4 -2,2 -4,4 -6,7 -1,3 -2,6 -2,10 0,4 1,7 2,9 1,2 3,4 6,6 2,2 5,3 8,4 3,1 6,2 9,3 4,1 8,3 12,4 4,2 8,4 11,6 3,2 6,6 8,9 2,4 3,9 3,14 0,6 -1,11 -3,15 -2,4 -5,8 -9,10 -4,3 -8,5 -12,6 -5,1 -9,2 -14,2 -3,0 -7,0 -10,-1 -3,-1 -7,-2 -10,-3 -3,-1 -6,-3 -9,-5 -3,-2 -5,-5 -7,-8l10 -8c2,4 6,8 11,10 5,3 10,4 16,4 3,0 6,0 9,-1 3,-1 6,-2 8,-4 2,-2 4,-4 6,-7 2,-3 2,-6 2,-10 0,-4 -1,-7 -2,-10 -2,-3 -4,-5 -6,-7 -3,-2 -6,-3 -9,-4 -3,-1 -7,-2 -11,-4 -4,-1 -8,-3 -11,-4 -4,-2 -7,-4 -10,-6 -3,-2 -5,-5 -7,-9 -2,-4 -3,-8 -3,-13 0,-6 1,-10 3,-14 2,-4 5,-7 9,-10 4,-3 8,-5 12,-6 4,-1 9,-2 13,-2 8,0 15,1 20,4 6,3 10,6 13,10l-9 8z"/>
   </g>
  </g>
 </g>
</svg>